<svg width="128" height="128" viewBox="0 0 128 128" fill="none" xmlns="http://www.w3.org/2000/svg">
<path d="M98.9853 15.1429L118.001 34.0717L68.339 83.3547L49.3347 64.426L98.9853 15.1429ZM40.9095 89.6639C40.8298 90.0207 40.8425 90.3918 40.9466 90.7424C41.0507 91.0929 41.2427 91.4113 41.5045 91.6676C41.7663 91.9239 42.0893 92.1097 42.4431 92.2074C42.7969 92.3051 43.1699 92.3116 43.5269 92.2263L64.7178 87.1118L45.7121 68.1831L40.9095 89.6639Z" fill="#FF0000"/>
<path fill-rule="evenodd" clip-rule="evenodd" d="M11.9287 92.2858C12.9938 92.2858 13.8572 93.1392 13.8572 94.192V99.9086L67.7887 99.9978V94.4671C67.7887 93.4143 68.6521 92.5608 69.7173 92.5608C70.7824 92.5608 71.6458 93.4143 71.6458 94.4671V111.226C71.6458 112.279 70.7824 113.132 69.7173 113.132C68.6521 113.132 67.7887 112.279 67.7887 111.226V103.855L13.8572 103.766V110.951C13.8572 112.004 12.9938 112.857 11.9287 112.857C10.8635 112.857 10.0001 112.004 10.0001 110.951V101.844L10.0001 101.833L10.0001 101.823V94.192C10.0001 93.1392 10.8635 92.2858 11.9287 92.2858Z" fill="#FF0000"/>
</svg>
